<mxfile host="app.diagrams.net" modified="2022-07-04T16:18:14.487Z" agent="5.0 (Windows NT 10.0; Win64; x64) AppleWebKit/537.36 (KHTML, like Gecko) Chrome/101.0.4951.54 Safari/537.36" etag="h1mmDRPVdc2XAplj68Dl" version="20.0.4" type="github">
  <diagram id="OxUJ6g34_BqM4uzvzFgW" name="Page-1">
    <mxGraphModel dx="1422" dy="794" grid="1" gridSize="10" guides="1" tooltips="1" connect="1" arrows="1" fold="1" page="1" pageScale="1" pageWidth="827" pageHeight="1169" math="0" shadow="0">
      <root>
        <mxCell id="0" />
        <mxCell id="1" parent="0" />
        <mxCell id="yr_afvmeJqP50g--ttzm-1" value="" style="ellipse;whiteSpace=wrap;html=1;fillColor=#dae8fc;strokeColor=#6c8ebf;" vertex="1" parent="1">
          <mxGeometry x="90" y="180" width="120" height="80" as="geometry" />
        </mxCell>
        <mxCell id="yr_afvmeJqP50g--ttzm-13" value="" style="ellipse;whiteSpace=wrap;html=1;strokeColor=#6c8ebf;fillColor=#dae8fc;" vertex="1" parent="1">
          <mxGeometry x="280" y="90" width="120" height="80" as="geometry" />
        </mxCell>
        <mxCell id="yr_afvmeJqP50g--ttzm-14" value="" style="shape=image;html=1;verticalAlign=top;verticalLabelPosition=bottom;labelBackgroundColor=#ffffff;imageAspect=0;aspect=fixed;image=https://cdn0.iconfinder.com/data/icons/phosphor-thin-vol-3/256/number-circle-zero-thin-128.png;strokeColor=#1A1A1A;imageBackground=none;" vertex="1" parent="1">
          <mxGeometry x="138" y="208" width="24" height="24" as="geometry" />
        </mxCell>
        <mxCell id="yr_afvmeJqP50g--ttzm-16" value="1" style="ellipse;whiteSpace=wrap;html=1;aspect=fixed;strokeWidth=1;fontFamily=Tahoma;spacingBottom=4;spacingRight=2;strokeColor=#1A1A1A;fillColor=#dae8fc;" vertex="1" parent="1">
          <mxGeometry x="330" y="120" width="20" height="20" as="geometry" />
        </mxCell>
        <mxCell id="yr_afvmeJqP50g--ttzm-17" value="" style="ellipse;whiteSpace=wrap;html=1;strokeColor=#6c8ebf;fillColor=#dae8fc;" vertex="1" parent="1">
          <mxGeometry x="280" y="280" width="120" height="80" as="geometry" />
        </mxCell>
        <mxCell id="yr_afvmeJqP50g--ttzm-21" value="" style="ellipse;whiteSpace=wrap;html=1;strokeColor=#6c8ebf;fillColor=#dae8fc;" vertex="1" parent="1">
          <mxGeometry x="480" y="180" width="120" height="80" as="geometry" />
        </mxCell>
        <mxCell id="yr_afvmeJqP50g--ttzm-24" value="" style="endArrow=classic;html=1;rounded=0;entryX=0.033;entryY=0.65;entryDx=0;entryDy=0;entryPerimeter=0;" edge="1" parent="1" target="yr_afvmeJqP50g--ttzm-13">
          <mxGeometry width="50" height="50" relative="1" as="geometry">
            <mxPoint x="200" y="200" as="sourcePoint" />
            <mxPoint x="270" y="150" as="targetPoint" />
            <Array as="points" />
          </mxGeometry>
        </mxCell>
        <mxCell id="yr_afvmeJqP50g--ttzm-27" value="" style="endArrow=classic;html=1;rounded=0;exitX=1;exitY=1;exitDx=0;exitDy=0;" edge="1" parent="1" source="yr_afvmeJqP50g--ttzm-1" target="yr_afvmeJqP50g--ttzm-17">
          <mxGeometry width="50" height="50" relative="1" as="geometry">
            <mxPoint x="210" y="330" as="sourcePoint" />
            <mxPoint x="260" y="280" as="targetPoint" />
          </mxGeometry>
        </mxCell>
        <mxCell id="yr_afvmeJqP50g--ttzm-28" value="" style="endArrow=classic;html=1;rounded=0;entryX=0.5;entryY=1;entryDx=0;entryDy=0;" edge="1" parent="1" target="yr_afvmeJqP50g--ttzm-13">
          <mxGeometry width="50" height="50" relative="1" as="geometry">
            <mxPoint x="340" y="280" as="sourcePoint" />
            <mxPoint x="390" y="230" as="targetPoint" />
          </mxGeometry>
        </mxCell>
        <mxCell id="yr_afvmeJqP50g--ttzm-29" value="" style="shape=image;html=1;verticalAlign=top;verticalLabelPosition=bottom;labelBackgroundColor=#ffffff;imageAspect=0;aspect=fixed;image=https://cdn0.iconfinder.com/data/icons/phosphor-fill-vol-3/256/number-zero-fill-128.png;strokeColor=#1A1A1A;imageBackground=#FFFF33;" vertex="1" parent="1">
          <mxGeometry x="90" y="160" width="20" height="20" as="geometry" />
        </mxCell>
        <mxCell id="yr_afvmeJqP50g--ttzm-30" value="" style="shape=image;html=1;verticalAlign=top;verticalLabelPosition=bottom;labelBackgroundColor=#ffffff;imageAspect=0;aspect=fixed;image=https://cdn0.iconfinder.com/data/icons/phosphor-bold-vol-3-1/256/number-two-duotone-128.png;strokeColor=#1A1A1A;imageBackground=#FFFF33;" vertex="1" parent="1">
          <mxGeometry x="260" y="88" width="20" height="20" as="geometry" />
        </mxCell>
        <mxCell id="yr_afvmeJqP50g--ttzm-31" value="" style="shape=image;html=1;verticalAlign=top;verticalLabelPosition=bottom;labelBackgroundColor=#ffffff;imageAspect=0;aspect=fixed;image=https://cdn0.iconfinder.com/data/icons/phosphor-bold-vol-3-1/256/number-one-duotone-128.png;strokeColor=#1A1A1A;imageBackground=#FFFF33;" vertex="1" parent="1">
          <mxGeometry x="260" y="360" width="20" height="20" as="geometry" />
        </mxCell>
        <mxCell id="yr_afvmeJqP50g--ttzm-32" value="2" style="ellipse;whiteSpace=wrap;html=1;aspect=fixed;strokeWidth=1;fontFamily=Tahoma;spacingBottom=4;spacingRight=2;strokeColor=#1A1A1A;fillColor=#dae8fc;" vertex="1" parent="1">
          <mxGeometry x="330" y="310" width="20" height="20" as="geometry" />
        </mxCell>
        <mxCell id="yr_afvmeJqP50g--ttzm-33" value="3" style="ellipse;whiteSpace=wrap;html=1;aspect=fixed;strokeWidth=1;fontFamily=Tahoma;spacingBottom=4;spacingRight=2;strokeColor=#1A1A1A;fillColor=#dae8fc;" vertex="1" parent="1">
          <mxGeometry x="530" y="212" width="20" height="20" as="geometry" />
        </mxCell>
        <mxCell id="yr_afvmeJqP50g--ttzm-36" value="" style="endArrow=classic;html=1;rounded=0;exitX=0.983;exitY=0.413;exitDx=0;exitDy=0;exitPerimeter=0;" edge="1" parent="1" source="yr_afvmeJqP50g--ttzm-17" target="yr_afvmeJqP50g--ttzm-21">
          <mxGeometry width="50" height="50" relative="1" as="geometry">
            <mxPoint x="430" y="310" as="sourcePoint" />
            <mxPoint x="480" y="260" as="targetPoint" />
            <Array as="points">
              <mxPoint x="450" y="280" />
            </Array>
          </mxGeometry>
        </mxCell>
        <mxCell id="yr_afvmeJqP50g--ttzm-37" value="" style="endArrow=classic;html=1;rounded=0;exitX=0.95;exitY=0.725;exitDx=0;exitDy=0;exitPerimeter=0;" edge="1" parent="1" source="yr_afvmeJqP50g--ttzm-13" target="yr_afvmeJqP50g--ttzm-21">
          <mxGeometry width="50" height="50" relative="1" as="geometry">
            <mxPoint x="390" y="230" as="sourcePoint" />
            <mxPoint x="440" y="180" as="targetPoint" />
          </mxGeometry>
        </mxCell>
        <mxCell id="yr_afvmeJqP50g--ttzm-38" value="" style="shape=image;html=1;verticalAlign=top;verticalLabelPosition=bottom;labelBackgroundColor=#ffffff;imageAspect=0;aspect=fixed;image=https://cdn0.iconfinder.com/data/icons/phosphor-bold-vol-3-1/256/number-two-duotone-128.png;strokeColor=#1A1A1A;imageBackground=#FFFF33;" vertex="1" parent="1">
          <mxGeometry x="600" y="170" width="20" height="20" as="geometry" />
        </mxCell>
      </root>
    </mxGraphModel>
  </diagram>
</mxfile>
